<?xml version="1.0" encoding="UTF-8" standalone="no"?>
<!-- Created with Inkscape (http://www.inkscape.org/) -->

<svg
   xmlns:dc="http://purl.org/dc/elements/1.1/"
   xmlns:cc="http://creativecommons.org/ns#"
   xmlns:rdf="http://www.w3.org/1999/02/22-rdf-syntax-ns#"
   xmlns:svg="http://www.w3.org/2000/svg"
   xmlns="http://www.w3.org/2000/svg"
   version="1.1"
   width="86"
   height="87.192001"
   id="svg3201">
  <defs
     id="defs3203" />
  <metadata
     id="metadata3206">
    <rdf:RDF>
      <cc:Work
         rdf:about="">
        <dc:format>image/svg+xml</dc:format>
        <dc:type
           rdf:resource="http://purl.org/dc/dcmitype/StillImage" />
        <dc:title></dc:title>
      </cc:Work>
    </rdf:RDF>
  </metadata>
  <g
     transform="translate(-295.78848,-527.55749)"
     id="layer1">
    <g
       transform="translate(-79.82052,156.94249)"
       id="g65">
      <path
         d="m 401.501,409.716 c 11.471,2.471 29.162,11.036 39.283,10.287 10.279,-0.761 14.588,-2.969 18.803,-6.039 -0.451,-22.254 -18.617,-40.158 -40.979,-40.158 -22.186,0 -40.244,17.625 -40.967,39.636 3.684,-1.601 14.508,-5.74 23.86,-3.726 z"
         id="path67"
         style="fill:#47a7d9" />
      <path
         d="m 440.784,420.003 c -10.115,0.83 -27.812,-7.816 -39.283,-10.287 -9.352,-2.014 -20.176,2.125 -23.859,3.726 -0.014,0.454 -0.033,0.907 -0.033,1.364 0,22.644 18.355,41.001 41,41.001 22.643,0 41,-18.357 41,-41.001 0,-0.282 -0.016,-0.561 -0.021,-0.842 -4.216,3.07 -9.536,5.278 -18.804,6.039 z"
         id="path69"
         style="fill:#1888c5" />
      <path
         d="m 451.587,411.771 h -3.493 c -0.074,-2.129 -0.313,-4.246 -0.71,-6.324 -0.999,-5.178 -2.938,-10.15 -5.757,-14.492 -2.827,-4.325 -6.561,-8 -10.931,-10.445 -2.181,-1.223 -4.504,-2.145 -6.897,-2.723 -0.989,-0.238 -1.987,-0.404 -2.991,-0.531 v -4.641 h -8.271 v 8.812 h 8.271 v -3.984 c 3.388,0.578 6.674,1.754 9.644,3.547 4.221,2.537 7.76,6.242 10.388,10.533 2.653,4.283 4.464,9.145 5.338,14.175 0.35,2.003 0.544,4.038 0.584,6.073 h -3.444 v 8.812 h 2.534 c -0.022,0.09 -0.037,0.183 -0.059,0.272 -0.61,2.446 -1.517,4.805 -2.741,6.95 -1.235,2.153 -2.708,4.163 -4.403,5.927 -3.381,3.542 -7.619,6.137 -12.186,7.474 -4.562,1.349 -9.442,1.454 -14.037,0.272 -0.532,-0.136 -1.061,-0.291 -1.584,-0.461 v -4.989 h -8.271 v 0.603 c -0.854,-0.678 -1.669,-1.41 -2.422,-2.217 -3.334,-3.497 -5.579,-8.153 -6.317,-13.09 -0.76,-4.932 -0.003,-10.111 2.146,-14.566 1.053,-2.224 2.467,-4.262 4.213,-5.896 1.742,-1.645 3.794,-2.916 6.002,-3.716 4.411,-1.615 9.42,-1.315 13.631,0.893 2.118,1.082 3.985,2.637 5.39,4.629 1.405,1.979 2.341,4.34 2.7,6.805 0.363,2.464 0.146,5.028 -0.641,7.389 -0.785,2.363 -2.097,4.543 -3.953,6.08 -1.828,1.561 -4.135,2.494 -6.498,2.635 -2.362,0.147 -4.776,-0.508 -6.793,-1.875 -2.012,-1.346 -3.503,-3.572 -4.05,-6.068 -0.059,-0.252 -0.103,-0.506 -0.141,-0.762 h 3.706 v -8.812 h -8.273 v 8.812 h 4.299 c 0.031,0.277 0.065,0.555 0.119,0.83 0.488,2.592 1.971,4.971 4.059,6.462 2.064,1.493 4.587,2.272 7.104,2.196 2.517,-0.068 5.02,-0.982 7.054,-2.611 1.018,-0.811 1.909,-1.801 2.643,-2.909 0.727,-1.113 1.309,-2.312 1.757,-3.577 0.891,-2.525 1.177,-5.296 0.828,-7.979 -0.344,-2.685 -1.317,-5.28 -2.823,-7.48 -1.491,-2.212 -3.551,-3.985 -5.814,-5.192 -2.262,-1.234 -4.762,-1.984 -7.303,-2.188 -2.543,-0.199 -5.122,0.159 -7.541,1.021 -2.421,0.862 -4.68,2.24 -6.604,4.036 -1.937,1.793 -3.487,4.002 -4.646,6.413 -2.35,4.792 -3.204,10.397 -2.41,15.743 0.772,5.35 3.169,10.429 6.785,14.253 1.175,1.203 2.452,2.265 3.796,3.211 v 5.742 h 8.271 v -1.761 c 5.246,1.53 10.88,1.551 16.098,-0.056 4.845,-1.452 9.329,-4.236 12.891,-8.015 1.785,-1.887 3.344,-4.01 4.619,-6.317 1.274,-2.327 2.192,-4.853 2.791,-7.442 0.05,-0.223 0.085,-0.445 0.131,-0.667 h 4.217 v -8.814 z"
         id="path71"
         style="fill:#ffffff" />
    </g>
  </g>
</svg>
